<svg width="44" height="46" viewBox="0 0 44 46" fill="none" xmlns="http://www.w3.org/2000/svg">
<path d="M7.81245 37.0172C9.89023 35.4532 12.0951 34.2172 14.4271 33.3091C16.7575 32.3993 19.2818 31.9444 22 31.9444C24.7182 31.9444 27.2425 32.3993 29.5729 33.3091C31.9033 34.2189 34.1082 35.4541 36.1876 37.0147C37.8009 35.2684 39.0989 33.2069 40.0816 30.8302C41.0642 28.4501 41.5556 25.8401 41.5556 23C41.5556 17.3352 39.6513 12.5111 35.8429 8.52789C32.0344 4.54463 27.4201 2.55385 22 2.55556C16.5799 2.55726 11.9656 4.54889 8.15711 8.53044C4.34867 12.512 2.44445 17.3352 2.44445 23C2.44445 25.8401 2.93578 28.4501 3.91845 30.8302C4.90111 33.2086 6.19911 35.2701 7.81245 37.0147M22 24.2778C19.9418 24.2778 18.2046 23.5384 16.7884 22.0596C15.3723 20.5807 14.665 18.7646 14.6667 16.6111C14.6683 14.4576 15.3756 12.6415 16.7884 11.1627C18.2013 9.68385 19.9385 8.94444 22 8.94444C24.0615 8.94444 25.7987 9.68385 27.2116 11.1627C28.6244 12.6415 29.3317 14.4576 29.3333 16.6111C29.335 18.7646 28.6277 20.5807 27.2116 22.0596C25.7954 23.5384 24.0582 24.2778 22 24.2778ZM22 46C18.9314 46 16.0592 45.4029 13.3833 44.2086C10.7075 43.0143 8.37874 41.3821 6.39711 39.3121C4.41548 37.2421 2.8543 34.8075 1.71356 32.0083C0.572818 29.2091 0.00163311 26.2064 3.47716e-06 23C-0.00162615 19.7936 0.569559 16.7909 1.71356 13.9917C2.85756 11.1925 4.41874 8.75789 6.39711 6.68789C8.37874 4.61789 10.7075 2.98574 13.3833 1.79144C16.0592 0.597148 18.9314 0 22 0C25.0686 0 27.9408 0.597148 30.6167 1.79144C33.2925 2.98574 35.6213 4.61789 37.6029 6.68789C39.5845 8.75789 41.1457 11.1925 42.2864 13.9917C43.4272 16.7909 43.9984 19.7936 44 23C44.0016 26.2064 43.4304 29.2091 42.2864 32.0083C41.1424 34.8075 39.5813 37.2421 37.6029 39.3121C35.6213 41.3821 33.2925 43.0143 30.6167 44.2086C27.9408 45.4029 25.0686 46 22 46Z" fill="#3F80F7"/>
</svg>
