<svg width="123" height="46" viewBox="0 0 123 46" fill="none" xmlns="http://www.w3.org/2000/svg">
<rect width="123" height="46" rx="20" fill="#E4E8EE"/>
<path d="M43.1936 30.8889H27.0158V29.3556H34.2602V25.8444H28.1714V19.8444H40.5047V16.8667H28.1491V15.3556H42.1047V21.3111H29.7491V24.3333H42.3491V25.8444H35.8602V29.3556H43.1936V30.8889ZM57.9912 27.1556V16.9111H45.6357V15.3333H59.6579V27.1556H57.9912ZM44.6135 30.8889V29.3111H60.7912V30.8889H44.6135ZM76.8111 23.3556V31.7556H75.2111V14.6889H76.8111V21.7556H79.1667V23.3556H76.8111ZM67.5889 15.1333C69.0407 15.1333 70.1963 15.8 71.0556 17.1333C71.9296 18.4667 72.3667 20.4296 72.3667 23.0222C72.3667 25.6148 71.9296 27.5778 71.0556 28.9111C70.1963 30.2444 69.0407 30.9111 67.5889 30.9111C66.1222 30.9111 64.9519 30.2444 64.0778 28.9111C63.2185 27.5778 62.7889 25.6148 62.7889 23.0222C62.7889 20.4296 63.2185 18.4667 64.0778 17.1333C64.9519 15.8 66.1222 15.1333 67.5889 15.1333ZM67.5889 29.3778C68.537 29.3778 69.3 28.8519 69.8778 27.8C70.4704 26.7333 70.7667 25.1407 70.7667 23.0222C70.7667 20.9037 70.4704 19.3185 69.8778 18.2667C69.3 17.2 68.537 16.6667 67.5889 16.6667C66.6111 16.6667 65.8333 17.2 65.2556 18.2667C64.6778 19.3185 64.3889 20.9037 64.3889 23.0222C64.3889 25.1556 64.6778 26.7481 65.2556 27.8C65.8333 28.8519 66.6111 29.3778 67.5889 29.3778ZM87.8977 21.4889C85.8236 21.4889 84.1125 21.2 82.7643 20.6222C81.4162 20.0444 80.7421 19.1852 80.7421 18.0444C80.7421 16.9037 81.4162 16.0444 82.7643 15.4667C84.1125 14.8889 85.8236 14.6 87.8977 14.6C89.9569 14.6 91.6606 14.8889 93.0088 15.4667C94.3569 16.0444 95.031 16.9037 95.031 18.0444C95.031 19.1852 94.3569 20.0444 93.0088 20.6222C91.6606 21.2 89.9569 21.4889 87.8977 21.4889ZM87.8977 15.9778C86.3421 15.9778 85.0384 16.1556 83.9865 16.5111C82.9495 16.8667 82.431 17.3778 82.431 18.0444C82.431 18.7111 82.9495 19.2222 83.9865 19.5778C85.0384 19.9333 86.3421 20.1111 87.8977 20.1111C89.4384 20.1111 90.7273 19.9333 91.7643 19.5778C92.8162 19.2222 93.3421 18.7111 93.3421 18.0444C93.3421 17.3778 92.8162 16.8667 91.7643 16.5111C90.7273 16.1556 89.4384 15.9778 87.8977 15.9778ZM95.9865 24.2667H88.6977V25.8667H87.0977V24.2667H79.8088V22.8444H95.9865V24.2667ZM89.1199 26.5333C88.9865 27.0815 88.7865 27.5778 88.5199 28.0222L95.3199 30.2667L94.8532 31.6889L87.5643 29.1333C86.7791 29.9037 85.7643 30.4889 84.5199 30.8889C83.2754 31.2889 81.9791 31.4889 80.631 31.4889V30.0222C81.6828 30.0222 82.6977 29.8741 83.6754 29.5778C84.668 29.2815 85.5051 28.8519 86.1865 28.2889C86.868 27.7111 87.3051 27.037 87.4977 26.2667L89.1199 26.5333Z" fill="#3F80F7"/>
</svg>
