<svg width="175" height="46" viewBox="0 0 175 46" fill="none" xmlns="http://www.w3.org/2000/svg">
<rect width="175" height="46" rx="20" fill="#E4E8EE"/>
<path d="M23.9482 32.2933C22.6771 32.2933 21.4386 32.1141 20.2327 31.7556C19.043 31.3807 18.0816 30.9 17.3482 30.3133L18.6193 27.3311C19.3201 27.8689 20.1512 28.3007 21.1127 28.6267C22.0741 28.9526 23.0275 29.1156 23.9727 29.1156C25.0482 29.1156 25.8386 28.9526 26.3438 28.6267C26.8653 28.2844 27.126 27.8363 27.126 27.2822C27.126 26.8748 26.9712 26.5407 26.6616 26.28C26.3682 26.003 25.9853 25.783 25.5127 25.62C25.0401 25.457 24.3964 25.2778 23.5816 25.0822C22.343 24.7726 21.3327 24.463 20.5504 24.1533C19.7682 23.8437 19.0919 23.3467 18.5216 22.6622C17.9512 21.9778 17.666 21.0652 17.666 19.9244C17.666 18.9304 17.9186 18.0341 18.4238 17.2356C18.9453 16.4207 19.7193 15.777 20.746 15.3044C21.7727 14.8319 23.0275 14.5956 24.5104 14.5956C25.5534 14.5956 26.5638 14.7259 27.5416 14.9867C28.5356 15.2474 29.4075 15.6222 30.1571 16.1111L29.0082 19.1178C27.509 18.2215 26.0016 17.7733 24.486 17.7733C23.4267 17.7733 22.6445 17.9526 22.1393 18.3111C21.6504 18.6696 21.406 19.1422 21.406 19.7289C21.406 20.3156 21.6912 20.7556 22.2616 21.0489C22.8482 21.3259 23.7364 21.603 24.926 21.88C26.1645 22.1896 27.1749 22.4993 27.9571 22.8089C28.7556 23.1185 29.4401 23.6074 30.0104 24.2756C30.5808 24.9437 30.866 25.8481 30.866 26.9889C30.866 27.9667 30.6053 28.863 30.0838 29.6778C29.5623 30.4763 28.7801 31.1119 27.7371 31.5844C26.7104 32.057 25.4475 32.2933 23.9482 32.2933ZM41.7116 31.3644C41.3531 31.6415 40.9131 31.8533 40.3916 32C39.8864 32.1304 39.3405 32.1956 38.7538 32.1956C37.2709 32.1956 36.122 31.7963 35.3072 30.9978C34.4923 30.1993 34.0849 29.0259 34.0849 27.4778V22.0756H32.1783V19.1422H34.0849V15.94H37.7272V19.1422H40.8316V22.0756H37.7272V27.4289C37.7272 27.983 37.8575 28.4148 38.1183 28.7244C38.3953 29.0178 38.7783 29.1644 39.2672 29.1644C39.8375 29.1644 40.3264 29.0015 40.7338 28.6756L41.7116 31.3644ZM49.8187 32.1956C48.4987 32.1956 47.3173 31.9104 46.2743 31.34C45.2313 30.7533 44.4084 29.9467 43.8054 28.92C43.2187 27.8933 42.9254 26.7281 42.9254 25.4244C42.9254 24.1207 43.2187 22.9556 43.8054 21.9289C44.4084 20.9022 45.2313 20.1037 46.2743 19.5333C47.3173 18.9467 48.4987 18.6533 49.8187 18.6533C51.1225 18.6533 52.2958 18.9467 53.3388 19.5333C54.3817 20.1037 55.1965 20.9022 55.7832 21.9289C56.3699 22.9556 56.6632 24.1207 56.6632 25.4244C56.6632 26.7281 56.3699 27.8933 55.7832 28.92C55.1965 29.9467 54.3817 30.7533 53.3388 31.34C52.2958 31.9104 51.1225 32.1956 49.8187 32.1956ZM49.8187 29.0667C50.7476 29.0667 51.5054 28.7407 52.0921 28.0889C52.695 27.4207 52.9965 26.5326 52.9965 25.4244C52.9965 24.3163 52.695 23.4363 52.0921 22.7844C51.5054 22.1163 50.7476 21.7822 49.8187 21.7822C48.8899 21.7822 48.1239 22.1163 47.521 22.7844C46.918 23.4363 46.6165 24.3163 46.6165 25.4244C46.6165 26.5326 46.918 27.4207 47.521 28.0889C48.1239 28.7407 48.8899 29.0667 49.8187 29.0667ZM63.1422 20.5844C63.5822 19.9489 64.1689 19.4681 64.9022 19.1422C65.6355 18.8163 66.483 18.6533 67.4444 18.6533V22.1733C67.0207 22.1407 66.7437 22.1244 66.6133 22.1244C65.5867 22.1244 64.78 22.4341 64.1933 23.0533C63.6067 23.6563 63.3133 24.5689 63.3133 25.7911V32H59.6711V18.8489H63.1422V20.5844ZM78.0481 32.8067C77.4614 34.3222 76.7444 35.3896 75.897 36.0089C75.0659 36.6281 74.0555 36.9378 72.8659 36.9378C72.214 36.9378 71.5703 36.8319 70.9347 36.62C70.2992 36.4081 69.7859 36.1148 69.3947 35.74L70.7147 33.0267C70.9755 33.2874 71.2851 33.4911 71.6436 33.6378C72.0184 33.7844 72.3851 33.8578 72.7436 33.8578C73.2325 33.8578 73.6318 33.7437 73.9414 33.5156C74.251 33.2874 74.5525 32.8148 74.8459 32.0978L69.4192 18.8489H73.1592L76.6792 27.7711L80.1992 18.8489H83.6947L78.0481 32.8067ZM93.1684 18.6533C94.3254 18.6533 95.3765 18.9385 96.3217 19.5089C97.2669 20.063 98.0084 20.8533 98.5462 21.88C99.1002 22.8904 99.3773 24.0719 99.3773 25.4244C99.3773 26.777 99.1002 27.9667 98.5462 28.9933C98.0084 30.0037 97.2669 30.7941 96.3217 31.3644C95.3765 31.9185 94.3254 32.1956 93.1684 32.1956C91.441 32.1956 90.1291 31.6252 89.2328 30.4844V32H85.7617V13.8622H89.4039V20.2422C90.3165 19.183 91.5714 18.6533 93.1684 18.6533ZM92.5328 29.0667C93.4617 29.0667 94.2195 28.7407 94.8062 28.0889C95.4091 27.4207 95.7106 26.5326 95.7106 25.4244C95.7106 24.3163 95.4091 23.4363 94.8062 22.7844C94.2195 22.1163 93.4617 21.7822 92.5328 21.7822C91.6039 21.7822 90.838 22.1163 90.2351 22.7844C89.6484 23.4363 89.3551 24.3163 89.3551 25.4244C89.3551 26.5326 89.6484 27.4207 90.2351 28.0889C90.838 28.7407 91.6039 29.0667 92.5328 29.0667ZM108.381 32.1956C107.061 32.1956 105.879 31.9104 104.836 31.34C103.793 30.7533 102.97 29.9467 102.368 28.92C101.781 27.8933 101.488 26.7281 101.488 25.4244C101.488 24.1207 101.781 22.9556 102.368 21.9289C102.97 20.9022 103.793 20.1037 104.836 19.5333C105.879 18.9467 107.061 18.6533 108.381 18.6533C109.685 18.6533 110.858 18.9467 111.901 19.5333C112.944 20.1037 113.759 20.9022 114.345 21.9289C114.932 22.9556 115.225 24.1207 115.225 25.4244C115.225 26.7281 114.932 27.8933 114.345 28.92C113.759 29.9467 112.944 30.7533 111.901 31.34C110.858 31.9104 109.685 32.1956 108.381 32.1956ZM108.381 29.0667C109.31 29.0667 110.068 28.7407 110.654 28.0889C111.257 27.4207 111.559 26.5326 111.559 25.4244C111.559 24.3163 111.257 23.4363 110.654 22.7844C110.068 22.1163 109.31 21.7822 108.381 21.7822C107.452 21.7822 106.686 22.1163 106.083 22.7844C105.48 23.4363 105.179 24.3163 105.179 25.4244C105.179 26.5326 105.48 27.4207 106.083 28.0889C106.686 28.7407 107.452 29.0667 108.381 29.0667ZM123.293 18.6533C125.232 18.6533 126.715 19.1422 127.742 20.12C128.785 21.0815 129.307 22.54 129.307 24.4956V32H125.909V30.3622C125.208 31.5844 123.937 32.1956 122.095 32.1956C121.134 32.1956 120.303 32.0244 119.602 31.6822C118.901 31.34 118.364 30.8674 117.989 30.2644C117.614 29.6615 117.427 28.977 117.427 28.2111C117.427 26.9889 117.867 26.0274 118.747 25.3267C119.627 24.6259 120.979 24.2756 122.804 24.2756H125.664C125.664 23.6889 125.567 23.2326 125.371 22.9067C124.931 22.0919 124.075 21.6844 122.804 21.6844C122.136 21.6844 121.476 21.7985 120.824 22.0267C120.189 22.2385 119.643 22.5319 119.187 22.9067L117.891 20.2422C118.559 19.737 119.374 19.3459 120.335 19.0689C121.297 18.7919 122.283 18.6533 123.293 18.6533ZM123 29.6289C123.635 29.6289 124.19 29.4822 124.662 29.1889C125.135 28.8793 125.469 28.4311 125.664 27.8444V26.5H123.195C121.712 26.5 120.971 27.0133 120.971 28.04C120.971 28.5289 121.15 28.92 121.509 29.2133C121.867 29.4904 122.364 29.6289 123 29.6289ZM136.64 20.5844C137.08 19.9489 137.667 19.4681 138.4 19.1422C139.134 18.8163 139.981 18.6533 140.942 18.6533V22.1733C140.519 22.1407 140.242 22.1244 140.111 22.1244C139.085 22.1244 138.278 22.4341 137.691 23.0533C137.105 23.6563 136.811 24.5689 136.811 25.7911V32H133.169V18.8489H136.64V20.5844ZM156.522 32H153.051V30.4844C152.155 31.6252 150.859 32.1956 149.165 32.1956C147.991 32.1956 146.924 31.9185 145.962 31.3644C145.017 30.8104 144.267 30.02 143.713 28.9933C143.176 27.9667 142.907 26.777 142.907 25.4244C142.907 24.0719 143.176 22.8822 143.713 21.8556C144.267 20.8289 145.017 20.0385 145.962 19.4844C146.924 18.9304 147.991 18.6533 149.165 18.6533C150.762 18.6533 152.008 19.183 152.905 20.2422V13.8622H156.522V32ZM149.8 29.0667C150.713 29.0667 151.47 28.7407 152.073 28.0889C152.676 27.4207 152.978 26.5326 152.978 25.4244C152.978 24.3163 152.676 23.4363 152.073 22.7844C151.47 22.1163 150.713 21.7822 149.8 21.7822C148.855 21.7822 148.081 22.1163 147.478 22.7844C146.875 23.4363 146.573 24.3163 146.573 25.4244C146.573 26.5326 146.875 27.4207 147.478 28.0889C148.081 28.7407 148.855 29.0667 149.8 29.0667Z" fill="#FAFAFB"/>
</svg>
