<svg width="175" height="46" viewBox="0 0 175 46" fill="none" xmlns="http://www.w3.org/2000/svg">
<rect width="175" height="46" rx="20" fill="#3F80F7"/>
<path d="M37.7326 32.2933C36.4615 32.2933 35.223 32.1141 34.017 31.7556C32.8274 31.3807 31.8659 30.9 31.1326 30.3133L32.4037 27.3311C33.1044 27.8689 33.9356 28.3007 34.897 28.6267C35.8585 28.9526 36.8118 29.1156 37.757 29.1156C38.8326 29.1156 39.623 28.9526 40.1281 28.6267C40.6496 28.2844 40.9104 27.8363 40.9104 27.2822C40.9104 26.8748 40.7556 26.5407 40.4459 26.28C40.1526 26.003 39.7696 25.783 39.297 25.62C38.8244 25.457 38.1807 25.2778 37.3659 25.0822C36.1274 24.7726 35.117 24.463 34.3348 24.1533C33.5526 23.8437 32.8763 23.3467 32.3059 22.6622C31.7356 21.9778 31.4504 21.0652 31.4504 19.9244C31.4504 18.9304 31.703 18.0341 32.2081 17.2356C32.7296 16.4207 33.5037 15.777 34.5304 15.3044C35.557 14.8319 36.8118 14.5956 38.2948 14.5956C39.3378 14.5956 40.3481 14.7259 41.3259 14.9867C42.32 15.2474 43.1918 15.6222 43.9415 16.1111L42.7926 19.1178C41.2933 18.2215 39.7859 17.7733 38.2704 17.7733C37.2111 17.7733 36.4289 17.9526 35.9237 18.3111C35.4348 18.6696 35.1904 19.1422 35.1904 19.7289C35.1904 20.3156 35.4756 20.7556 36.0459 21.0489C36.6326 21.3259 37.5207 21.603 38.7104 21.88C39.9489 22.1896 40.9593 22.4993 41.7415 22.8089C42.54 23.1185 43.2244 23.6074 43.7948 24.2756C44.3652 24.9437 44.6504 25.8481 44.6504 26.9889C44.6504 27.9667 44.3896 28.863 43.8681 29.6778C43.3467 30.4763 42.5644 31.1119 41.5215 31.5844C40.4948 32.057 39.2318 32.2933 37.7326 32.2933ZM55.496 31.3644C55.1374 31.6415 54.6974 31.8533 54.176 32C53.6708 32.1304 53.1249 32.1956 52.5382 32.1956C51.0552 32.1956 49.9063 31.7963 49.0915 30.9978C48.2767 30.1993 47.8693 29.0259 47.8693 27.4778V22.0756H45.9626V19.1422H47.8693V15.94H51.5115V19.1422H54.616V22.0756H51.5115V27.4289C51.5115 27.983 51.6419 28.4148 51.9026 28.7244C52.1797 29.0178 52.5626 29.1644 53.0515 29.1644C53.6219 29.1644 54.1108 29.0015 54.5182 28.6756L55.496 31.3644ZM63.6031 32.1956C62.2831 32.1956 61.1016 31.9104 60.0587 31.34C59.0157 30.7533 58.1927 29.9467 57.5898 28.92C57.0031 27.8933 56.7098 26.7281 56.7098 25.4244C56.7098 24.1207 57.0031 22.9556 57.5898 21.9289C58.1927 20.9022 59.0157 20.1037 60.0587 19.5333C61.1016 18.9467 62.2831 18.6533 63.6031 18.6533C64.9068 18.6533 66.0802 18.9467 67.1231 19.5333C68.1661 20.1037 68.9809 20.9022 69.5676 21.9289C70.1542 22.9556 70.4476 24.1207 70.4476 25.4244C70.4476 26.7281 70.1542 27.8933 69.5676 28.92C68.9809 29.9467 68.1661 30.7533 67.1231 31.34C66.0802 31.9104 64.9068 32.1956 63.6031 32.1956ZM63.6031 29.0667C64.532 29.0667 65.2898 28.7407 65.8765 28.0889C66.4794 27.4207 66.7809 26.5326 66.7809 25.4244C66.7809 24.3163 66.4794 23.4363 65.8765 22.7844C65.2898 22.1163 64.532 21.7822 63.6031 21.7822C62.6742 21.7822 61.9083 22.1163 61.3053 22.7844C60.7024 23.4363 60.4009 24.3163 60.4009 25.4244C60.4009 26.5326 60.7024 27.4207 61.3053 28.0889C61.9083 28.7407 62.6742 29.0667 63.6031 29.0667ZM76.9266 20.5844C77.3666 19.9489 77.9532 19.4681 78.6866 19.1422C79.4199 18.8163 80.2673 18.6533 81.2288 18.6533V22.1733C80.8051 22.1407 80.5281 22.1244 80.3977 22.1244C79.371 22.1244 78.5644 22.4341 77.9777 23.0533C77.391 23.6563 77.0977 24.5689 77.0977 25.7911V32H73.4555V18.8489H76.9266V20.5844ZM91.8324 32.8067C91.2458 34.3222 90.5287 35.3896 89.6813 36.0089C88.8502 36.6281 87.8399 36.9378 86.6502 36.9378C85.9984 36.9378 85.3547 36.8319 84.7191 36.62C84.0836 36.4081 83.5702 36.1148 83.1791 35.74L84.4991 33.0267C84.7599 33.2874 85.0695 33.4911 85.428 33.6378C85.8028 33.7844 86.1695 33.8578 86.528 33.8578C87.0169 33.8578 87.4161 33.7437 87.7258 33.5156C88.0354 33.2874 88.3369 32.8148 88.6302 32.0978L83.2036 18.8489H86.9436L90.4636 27.7711L93.9836 18.8489H97.4791L91.8324 32.8067ZM103.188 13.8622V32H99.5461V13.8622H103.188ZM108.989 17.0156C108.321 17.0156 107.775 16.8119 107.351 16.4044C106.928 15.997 106.716 15.4919 106.716 14.8889C106.716 14.2859 106.928 13.7807 107.351 13.3733C107.775 12.9659 108.321 12.7622 108.989 12.7622C109.657 12.7622 110.195 12.9578 110.603 13.3489C111.026 13.74 111.238 14.2289 111.238 14.8156C111.238 15.4511 111.026 15.9807 110.603 16.4044C110.195 16.8119 109.657 17.0156 108.989 17.0156ZM110.798 18.8489V32H107.156V18.8489H110.798ZM122.368 18.6533C123.932 18.6533 125.187 19.1422 126.132 20.12C127.077 21.0978 127.55 22.5481 127.55 24.4711V32H123.932V25.0578C123.932 24.0148 123.712 23.2407 123.272 22.7356C122.832 22.2141 122.205 21.9533 121.39 21.9533C120.477 21.9533 119.752 22.2548 119.215 22.8578C118.677 23.4444 118.408 24.3244 118.408 25.4978V32H114.766V18.8489H118.237V20.3889C118.726 19.8348 119.32 19.4111 120.021 19.1178C120.738 18.8081 121.52 18.6533 122.368 18.6533ZM143.667 25.4733C143.667 25.5222 143.643 25.8644 143.594 26.5H134.158C134.337 27.3148 134.737 27.9585 135.356 28.4311C135.991 28.9037 136.782 29.14 137.727 29.14C138.379 29.14 138.949 29.0422 139.438 28.8467C139.943 28.6348 140.416 28.3089 140.856 27.8689L142.787 30.0689C141.597 31.4867 139.878 32.1956 137.629 32.1956C136.211 32.1956 134.957 31.9104 133.865 31.34C132.789 30.7533 131.958 29.9467 131.371 28.92C130.785 27.8933 130.491 26.7281 130.491 25.4244C130.491 24.137 130.777 22.98 131.347 21.9533C131.934 20.9104 132.732 20.1037 133.743 19.5333C134.769 18.9467 135.91 18.6533 137.165 18.6533C138.387 18.6533 139.487 18.9304 140.465 19.4844C141.459 20.0385 142.241 20.837 142.811 21.88C143.382 22.9067 143.667 24.1044 143.667 25.4733ZM137.189 21.5378C136.374 21.5378 135.682 21.7822 135.111 22.2711C134.557 22.76 134.223 23.4281 134.109 24.2756H140.245C140.114 23.4444 139.772 22.7844 139.218 22.2956C138.68 21.7904 138.004 21.5378 137.189 21.5378Z" fill="white"/>
</svg>
